<svg id="Layer_1" data-name="Layer 1" xmlns="http://www.w3.org/2000/svg" viewBox="0 0 256 256"><defs><style>.cls-1{fill:#212125;}.cls-2{fill:#c43323;}.cls-3{fill:#eaeaed;}.cls-4{fill:#636272;}.cls-5{fill:#a3a3ad;}.cls-6{fill:#cdcdd3;}.cls-7{fill:#e8e8ee;}</style></defs><title>icon</title><rect id="BG" class="cls-1" width="256" height="256"/><g id="text"><path class="cls-2" d="M46.89,88.17a8.33,8.33,0,0,1-6,2.31c-6,0-8.37-3.86-8.4-8.15A8,8,0,0,1,40.85,74a8.1,8.1,0,0,1,5.77,2.42l-2.2,2.18a5.12,5.12,0,0,0-3.57-1.3,4.75,4.75,0,0,0-4.94,5c0,2.29,1.26,4.9,4.94,4.9a5.91,5.91,0,0,0,3.86-1.51Z"/><path class="cls-2" d="M56.59,90.46c-5,0-8.49-3.12-8.49-8.24S51.56,74,56.59,74s8.49,3.12,8.49,8.24S61.62,90.46,56.59,90.46Zm0-13.34a4.93,4.93,0,0,0-5.05,5.1,5.05,5.05,0,1,0,5.05-5.1Z"/><path class="cls-2" d="M79.06,84.58l-.22-4.94V74.36h3.52V90.08h-3L71.54,80l.13,5.16v4.9H68.12V74.36h3Z"/><path class="cls-2" d="M86.31,90.08V74.38H97.76v3.21h-8v3.73h7.46v3.12H89.81v5.64Z"/><path class="cls-2" d="M100.81,90.08V74.36h3.48V90.08Z"/><path class="cls-2" d="M119.4,78.49a5.52,5.52,0,0,0-3.68-1.39c-3,0-4.94,1.7-4.94,5.14,0,2.25,1.23,5.05,4.94,5.05a5,5,0,0,0,3.34-1.1V83.68h-3.75V80.76h6.79v6.85c-1.35,1.93-3.51,2.92-6.4,2.92-6.07,0-8.36-4.2-8.36-8.29,0-4.42,2.61-8.35,8.38-8.35a7.66,7.66,0,0,1,5.86,2.42Z"/><path class="cls-2" d="M139.45,74.38v8.78c0,4.67-2.61,7.16-6.74,7.3s-7.59-2.22-7.59-7.3V74.38h3.48v8.78c0,2.81,1.57,4.27,4.13,4.15,2.38-.15,3.24-1.79,3.24-4.15V74.38Z"/><path class="cls-2" d="M157.12,90.08h-3.89l-4-5.17h-2.54v5.17h-3.5V74.36h7.46c3.79,0,5.81,2.54,5.81,5.3,0,2-.63,3.86-3.64,4.94l4.32,5.21ZM146.67,77.37V82h4a2.18,2.18,0,0,0,2.31-2.2,2.3,2.3,0,0,0-2.35-2.38Z"/><path class="cls-2" d="M171,87.38H163l-1.14,2.7h-3.78l7.06-15.72h3.81L176,90.08h-3.79Zm-4-9.47-2.71,6.37h5.41Z"/><path class="cls-2" d="M180.1,77.48h-4.78V74.36h13v3.12h-4.78v12.6H180.1Z"/><path class="cls-2" d="M198.29,90.46c-5,0-8.49-3.12-8.49-8.24S193.26,74,198.29,74s8.48,3.12,8.48,8.24S203.31,90.46,198.29,90.46Zm0-13.34a4.94,4.94,0,0,0-5.06,5.1,5.06,5.06,0,1,0,5.06-5.1Z"/><path class="cls-2" d="M223.77,90.08h-3.89l-4-5.17h-2.54v5.17h-3.5V74.36h7.46c3.79,0,5.81,2.54,5.81,5.3,0,2-.63,3.86-3.64,4.94l4.32,5.21ZM213.32,77.37V82h4a2.18,2.18,0,0,0,2.31-2.2,2.3,2.3,0,0,0-2.35-2.38Z"/><path class="cls-3" d="M38.24,57.88v7.41H32.4V39.09H44.75c6.7,0,10,4.35,10,9.4,0,5.24-3.37,9.31-10,9.39Zm0-5.35h6.51a3.83,3.83,0,0,0,4.19-3.93,3.87,3.87,0,0,0-4.19-4H38.24Z"/><path class="cls-3" d="M82.54,65.29H76.07l-6.7-8.61H65.14v8.61H59.31V39.09H71.73c6.32,0,9.69,4.23,9.69,8.84,0,3.4-1,6.43-6.06,8.23l7.18,8.68ZM65.14,44.11v7.63H71.8a3.64,3.64,0,0,0,3.86-3.66,3.85,3.85,0,0,0-3.93-4Z"/><path class="cls-3" d="M99.64,65.92c-8.38,0-14.14-5.2-14.14-13.73s5.76-13.73,14.14-13.73,14.15,5.2,14.15,13.73S108,65.92,99.64,65.92Zm0-22.22a8.22,8.22,0,0,0-8.42,8.49,8.42,8.42,0,1,0,16.84,0A8.13,8.13,0,0,0,99.64,43.7Z"/><path class="cls-3" d="M129.62,39.09c9,0,13,6.07,13,12.91s-3.86,13.29-13,13.29H118.88V39.09Zm-5,20.81h5c5.68,0,7.26-4.19,7.26-8s-1.8-7.56-7.26-7.56h-5Z"/><path class="cls-3" d="M171.3,39.13V53.76c0,7.79-4.34,11.94-11.22,12.16s-12.65-3.7-12.65-12.16V39.13h5.8V53.76c0,4.68,2.62,7.11,6.88,6.92,4-.26,5.39-3,5.39-6.92V39.13Z"/><path class="cls-3" d="M200.08,62.11A13.9,13.9,0,0,1,190,66c-10,0-13.95-6.43-14-13.58,0-6.77,4.38-13.88,14-13.88a13.48,13.48,0,0,1,9.62,4L196,46.17A8.52,8.52,0,0,0,190,44c-5.95,0-8.27,4.6-8.23,8.42s2.1,8.15,8.23,8.15a9.92,9.92,0,0,0,6.44-2.5Z"/><path class="cls-3" d="M210,44.3h-8V39.09h21.74V44.3h-8v21H210Z"/><path class="cls-3" d="M32.87,123,35,111.11h8.1l-.18,1.08H36l-.8,4.54h6.67l-.21,1.11H35l-.9,5.11Z"/><path class="cls-3" d="M56,117.07a7.15,7.15,0,0,1-7,6.1c-3.49,0-5-2.43-5-5.11a7.07,7.07,0,0,1,7.21-7.15C55.09,110.91,56.55,113.9,56,117.07Zm-7,5a6,6,0,0,0,5.8-5c.54-2.66-.54-5-3.77-5a5.83,5.83,0,0,0-6,5.87C45,120.11,46.18,122.06,49,122.06Z"/><path class="cls-3" d="M67.48,123H66l-3.08-4.36h-3.2L59,123H57.77l2.08-11.84h5.31a3,3,0,0,1,3.33,3.15,4.13,4.13,0,0,1-4.28,4.24Zm-6.64-10.72-.93,5.24H64a3.06,3.06,0,0,0,3.37-3.08c0-1.23-.64-2.16-2.37-2.16Z"/><path class="cls-3" d="M86.17,123H85l-.88-5.09-.65-4.49-2.21,4.47L78.55,123H77.34l-2.1-11.88h1.34l1.64,10.25,5.26-10.25h.74l1.64,10.25,5.28-10.25h1.32Z"/><path class="cls-3" d="M104.81,117.07a7.17,7.17,0,0,1-7.06,6.1c-3.48,0-5-2.43-5-5.11a7.07,7.07,0,0,1,7.21-7.15C103.93,110.91,105.38,113.9,104.81,117.07Zm-7,5a6,6,0,0,0,5.81-5c.54-2.66-.55-5-3.78-5a5.83,5.83,0,0,0-6,5.87C93.83,120.11,95,122.06,97.8,122.06Z"/><path class="cls-3" d="M118.88,117.07a7.16,7.16,0,0,1-7,6.1c-3.49,0-5-2.43-5-5.11a7.07,7.07,0,0,1,7.21-7.15C118,110.91,119.46,113.9,118.88,117.07Zm-7,5a6,6,0,0,0,5.8-5c.54-2.66-.54-5-3.77-5a5.84,5.84,0,0,0-6,5.87C107.9,120.11,109.09,122.06,111.88,122.06Z"/><path class="cls-3" d="M130.69,121.35a7.12,7.12,0,0,1-4.62,1.79c-3.57,0-5.21-2.23-5.21-5a7,7,0,0,1,7.32-7.19,4.64,4.64,0,0,1,3.91,1.8l-.85.71A4.1,4.1,0,0,0,128,112a5.85,5.85,0,0,0-5.95,6c0,2.3,1.35,4.06,4.19,4.06a6.11,6.11,0,0,0,3.81-1.45Z"/><path class="cls-3" d="M145,117.07a7.17,7.17,0,0,1-7.06,6.1c-3.48,0-5-2.43-5-5.11a7.07,7.07,0,0,1,7.21-7.15C144.12,110.91,145.57,113.9,145,117.07Zm-7,5a6,6,0,0,0,5.81-5c.54-2.66-.55-5-3.78-5a5.83,5.83,0,0,0-6,5.87C134,120.11,135.2,122.06,138,122.06Z"/><path class="cls-3" d="M158.9,113l-5.51,6.31h-.34l-3.3-6.55L148,123h-1.18l2.08-11.84h1.3l3.33,6.53,5.5-6.53h1.42L158.34,123h-1.18Z"/><path class="cls-3" d="M174.06,113l-5.52,6.31h-.34l-3.3-6.55L163.13,123h-1.19L164,111.11h1.31l3.33,6.53,5.5-6.53h1.42L173.5,123h-1.19Z"/><path class="cls-3" d="M185.59,123H177.1c.69-3.94,1.39-7.9,2.08-11.84h8.34l-.19,1.12h-7.15l-.75,4.24h6.84l-.21,1.1h-6.83l-.74,4.27h7.3Z"/><path class="cls-3" d="M198.21,123h-1.49l-3.08-4.36h-3.2l-.76,4.36H188.5l2.08-11.84h5.31a3,3,0,0,1,3.34,3.15,4.13,4.13,0,0,1-4.29,4.24Zm-6.63-10.72-.93,5.24h4.06a3.05,3.05,0,0,0,3.36-3.08c0-1.23-.64-2.16-2.36-2.16Z"/><path class="cls-3" d="M210.83,121.35a7.12,7.12,0,0,1-4.62,1.79c-3.57,0-5.21-2.23-5.21-5a7.06,7.06,0,0,1,7.32-7.19,4.64,4.64,0,0,1,3.91,1.8l-.84.71a4.13,4.13,0,0,0-3.23-1.42,5.86,5.86,0,0,0-6,6c0,2.3,1.35,4.06,4.2,4.06a6.09,6.09,0,0,0,3.8-1.45Z"/><path class="cls-3" d="M221.62,123h-8.49c.69-3.94,1.38-7.9,2.08-11.84h8.34l-.19,1.12h-7.15l-.75,4.24h6.84l-.21,1.1h-6.83l-.75,4.27h7.31Z"/></g><path class="cls-4" d="M108.58,169.13,227.44,256h23.45l-.15-.16L108.93,152.18c-6.91-3.51-17.11-3.05-22.26.46L0,195.84v16.77l86.32-43C91.47,166.08,101.68,165.62,108.58,169.13Z"/><path class="cls-5" d="M108.24,186.07,203.91,256h23.53L108.58,169.13c-6.9-3.51-17.11-3-22.26.45L0,212.61v16.77l86-42.85C91.12,183,101.33,182.56,108.24,186.07Z"/><path class="cls-6" d="M107.89,203l69.22,53h26.8l-95.67-69.93c-6.91-3.51-17.12-3-22.26.46L0,229.38v16.78l85.63-42.69C90.78,200,101,199.51,107.89,203Z"/><path class="cls-7" d="M107.89,203c-6.9-3.51-17.11-3.05-22.26.45L0,246.16V256H177.11Z"/></svg>